<svg xmlns="http://www.w3.org/2000/svg" style="display: none;"><symbol id="message" viewBox="0 0 426.667 426.667"><title>message</title><path d="M384,42.667H42.667c-23.573,0-42.453,19.093-42.453,42.667L0,341.333C0,364.907,19.093,384,42.667,384H384 c23.573,0,42.667-19.093,42.667-42.667v-256C426.667,61.76,407.573,42.667,384,42.667z M384,341.333H42.667V128l170.667,106.667 L384,128V341.333z M213.333,192L42.667,85.333H384L213.333,192z"/></symbol><symbol id="telephone" viewBox="0 0 459 459"><title>telephone</title><path d="M91.8,198.9c35.7,71.4,96.9,130.05,168.3,168.3L316.2,311.1c7.649-7.649,17.85-10.199,25.5-5.1 c28.05,10.2,58.649,15.3,91.8,15.3c15.3,0,25.5,10.2,25.5,25.5v86.7c0,15.3-10.2,25.5-25.5,25.5C193.8,459,0,265.2,0,25.5 C0,10.2,10.2,0,25.5,0h89.25c15.3,0,25.5,10.2,25.5,25.5c0,30.6,5.1,61.2,15.3,91.8c2.55,7.65,0,17.85-5.1,25.5L91.8,198.9z"/></symbol><symbol id="write" viewBox="0 0 510 510"><title>write</title><path d="M459,51H51C22.95,51,0,73.95,0,102v306c0,28.05,22.95,51,51,51h408c28.05,0,51-22.95,51-51V102 C510,73.95,487.05,51,459,51z M459,153L255,280.5L51,153v-51l204,127.5L459,102V153z"/></symbol><symbol id="linkedin-logo" viewBox="0 0 510 510"><title>linkedin-logo</title><path d="M459,0H51C22.95,0,0,22.95,0,51v408c0,28.05,22.95,51,51,51h408c28.05,0,51-22.95,51-51V51C510,22.95,487.05,0,459,0z M153,433.5H76.5V204H153V433.5z M114.75,160.65c-25.5,0-45.9-20.4-45.9-45.9s20.4-45.9,45.9-45.9s45.9,20.4,45.9,45.9 S140.25,160.65,114.75,160.65z M433.5,433.5H357V298.35c0-20.399-17.85-38.25-38.25-38.25s-38.25,17.851-38.25,38.25V433.5H204 V204h76.5v30.6c12.75-20.4,40.8-35.7,63.75-35.7c48.45,0,89.25,40.8,89.25,89.25V433.5z"/></symbol></svg>